<?xml version="1.0" standalone="no"?>
<!DOCTYPE svg PUBLIC "-//W3C//DTD SVG 20010904//EN"
 "http://www.w3.org/TR/2001/REC-SVG-20010904/DTD/svg10.dtd">
<svg version="1.0" xmlns="http://www.w3.org/2000/svg"
 width="348.000000pt" height="729.000000pt" viewBox="0 0 348.000000 729.000000"
 preserveAspectRatio="xMidYMid meet">

<g transform="translate(0.000000,729.000000) scale(0.100000,-0.100000)"
fill="#000000" stroke="none">
<path d="M1635 7284 c-311 -47 -548 -172 -706 -371 -90 -113 -169 -295 -169
-388 0 -21 -22 -47 -101 -123 -145 -138 -220 -250 -253 -379 -43 -166 7 -381
117 -501 66 -72 119 -99 332 -168 110 -36 203 -68 208 -73 15 -15 27 -127 37
-331 11 -221 3 -286 -39 -324 -18 -16 -22 -16 -50 -2 -48 26 -77 20 -125 -24
-35 -33 -51 -40 -83 -40 -34 0 -46 -6 -82 -45 -41 -44 -44 -45 -104 -45 -93 0
-131 -14 -173 -65 -27 -31 -49 -46 -78 -54 -170 -42 -277 -139 -324 -293 -69
-222 -48 -625 43 -838 47 -110 78 -217 115 -395 39 -189 60 -259 123 -415 58
-144 220 -484 262 -550 47 -75 173 -327 185 -370 6 -23 23 -55 39 -72 22 -25
35 -31 67 -30 21 0 46 1 53 3 11 3 18 -10 24 -45 9 -45 8 -50 -14 -66 -21 -17
-22 -21 -12 -63 12 -54 -1 -99 -95 -333 -74 -184 -113 -295 -202 -577 -77
-240 -77 -251 -18 -287 33 -20 51 -20 1266 -20 l1234 0 54 36 c30 20 58 44 63
53 10 18 -10 235 -35 379 -36 212 -106 471 -229 840 -74 221 -149 488 -169
604 -8 43 -22 36 139 63 55 9 145 32 200 51 76 27 123 38 199 43 91 6 100 9
122 34 15 18 24 41 24 62 0 42 -168 615 -217 739 -48 123 -137 299 -226 448
-40 68 -85 143 -99 168 -51 89 -120 255 -184 443 -77 225 -99 270 -176 352
-63 68 -129 108 -230 140 -57 18 -74 28 -94 58 -23 34 -29 37 -74 37 -27 0
-52 -4 -55 -10 -4 -6 -17 -4 -35 5 -16 8 -37 15 -47 15 -10 0 -28 16 -41 36
-22 34 -24 35 -70 28 -26 -4 -67 -13 -91 -20 -25 -7 -48 -11 -53 -8 -4 3 -8
57 -8 120 l0 114 34 0 c42 0 136 49 271 140 127 87 218 169 252 228 15 26 46
68 70 94 24 26 61 85 83 129 22 45 42 76 44 68 49 -154 70 -216 75 -224 8 -13
19 73 20 156 l1 66 53 6 c28 4 61 9 73 12 19 6 23 0 38 -62 9 -37 22 -86 28
-108 l11 -40 8 40 c4 22 8 78 8 125 l1 86 33 19 c17 10 64 50 103 87 l72 69
41 -20 c58 -30 67 -26 34 17 -44 55 -45 60 -30 83 11 15 16 17 20 7 3 -7 6 -2
6 12 1 14 12 52 26 85 13 33 32 95 41 137 10 42 21 75 26 72 4 -3 8 -1 8 5 0
5 -4 13 -10 16 -5 3 -10 25 -10 48 0 87 -53 235 -119 330 -27 39 -28 44 -13
55 15 11 14 12 -6 6 -18 -4 -37 8 -94 61 -78 72 -193 135 -324 176 -69 21 -71
23 -99 78 -45 87 -191 227 -293 279 -158 83 -277 112 -467 117 -71 2 -143 1
-160 -1z m281 -25 c251 -35 499 -180 608 -356 34 -56 33 -64 -6 -52 -71 20
-219 40 -353 45 -341 15 -750 -65 -1079 -210 l-39 -18 6 84 c9 130 44 218 127
318 57 67 113 100 247 145 158 52 324 67 489 44z m300 -392 c3 -3 -3 -26 -15
-51 -11 -25 -16 -46 -12 -46 5 0 18 23 30 50 15 34 27 50 40 50 31 0 81 -12
81 -20 0 -4 -16 -28 -36 -54 -20 -26 -34 -50 -31 -52 5 -6 58 59 76 93 9 18
17 21 49 16 60 -9 266 -63 275 -72 5 -5 -8 -28 -30 -52 -38 -43 -38 -43 -6
-21 18 13 39 32 47 44 13 18 18 19 50 8 43 -14 40 -21 -22 -60 -26 -16 -40
-30 -31 -30 9 0 37 16 63 36 46 35 46 35 76 17 17 -9 30 -20 30 -24 0 -4 -15
-16 -32 -28 -18 -11 -29 -21 -24 -21 5 0 24 9 43 21 l34 21 37 -26 c60 -41
118 -104 101 -110 -27 -10 -227 -36 -272 -36 -35 0 -57 8 -96 34 -50 34 -161
75 -255 96 -196 43 -554 31 -829 -27 -68 -14 -80 -14 -88 -2 -7 12 -9 12 -9
-1 0 -11 -32 -26 -102 -49 -199 -64 -356 -151 -470 -259 -39 -37 -62 -52 -74
-48 -12 5 -15 2 -10 -10 4 -10 -10 -38 -40 -78 -56 -75 -108 -181 -130 -266
-22 -85 -23 -234 0 -319 9 -35 15 -65 14 -67 -2 -1 -19 -5 -38 -9 -30 -5 -39
-2 -59 19 -24 26 -24 26 -3 26 11 0 24 5 27 10 4 6 -8 10 -29 10 -34 0 -38 4
-66 60 -32 64 -54 141 -65 228 l-7 54 58 -7 c43 -5 55 -3 44 4 -8 6 -25 11
-37 11 -41 0 -53 11 -53 47 0 33 1 34 30 28 36 -8 39 0 6 17 l-25 13 28 66
c16 37 47 94 70 127 l43 60 34 -14 c50 -21 65 -16 20 7 l-39 21 30 30 c30 30
31 30 64 13 l34 -16 -28 24 -29 24 54 47 c93 82 338 236 376 236 4 0 14 -16
21 -35 7 -19 17 -35 22 -35 5 0 2 14 -6 31 -9 17 -14 37 -11 44 2 7 42 27 88
45 198 76 481 140 698 159 104 9 306 8 316 -2z m-11 -320 c64 -153 72 -488 16
-667 -11 -33 -15 -58 -11 -55 13 8 48 124 60 195 5 36 10 124 11 195 l1 130
23 -91 c26 -101 44 -226 46 -319 l1 -60 15 45 c8 27 17 110 21 204 l7 158 44
-178 c24 -99 45 -186 47 -195 4 -12 -11 -20 -63 -33 -82 -20 -164 -60 -195
-94 l-23 -26 30 21 c77 52 202 97 243 86 17 -4 20 -17 25 -116 l7 -112 -39
-75 c-21 -41 -58 -129 -81 -195 -23 -66 -49 -133 -57 -149 -40 -78 -174 -190
-362 -303 -130 -78 -158 -81 -249 -25 -190 115 -365 265 -470 404 -62 81 -102
194 -101 283 0 39 4 79 8 89 6 16 11 12 27 -27 10 -26 22 -47 27 -47 4 0 7 19
7 43 0 63 36 293 58 367 l19 65 6 -70 c4 -38 10 -115 13 -169 11 -166 15 -165
63 11 52 183 70 233 85 232 51 -5 61 -14 58 -59 -2 -25 -5 -58 -8 -75 -10 -50
12 -16 30 48 l17 57 32 -16 c65 -34 154 -99 221 -163 38 -36 64 -56 58 -45
-20 38 -154 154 -227 197 -38 22 -72 42 -73 43 -2 1 15 42 38 91 83 179 212
338 320 397 29 16 51 25 48 20 -2 -5 -23 -47 -45 -94 -50 -102 -88 -213 -113
-335 -33 -151 -21 -147 34 10 69 198 110 276 204 393 32 39 38 42 84 42 46 0
50 -2 63 -33z m896 -97 c21 -36 39 -73 39 -82 0 -16 -47 -38 -79 -38 -8 0 -64
24 -123 53 l-107 52 102 51 c76 39 105 49 115 41 7 -6 31 -40 53 -77z m73
-175 c9 -32 16 -65 16 -72 0 -7 -27 15 -60 49 -33 34 -60 63 -60 65 0 2 8 3
18 3 10 0 27 6 38 14 25 19 30 13 48 -59z m-1618 -56 c-8 -41 -17 -91 -21
-112 -5 -34 -8 -37 -33 -31 -15 4 -31 10 -35 14 -4 4 15 53 44 109 28 56 53
101 55 98 2 -2 -2 -37 -10 -78z m1479 -6 c28 -9 74 -27 103 -41 l54 -26 -7
-46 c-7 -55 -29 -133 -51 -186 l-16 -39 -17 55 c-25 80 -66 155 -128 239 l-55
73 33 -7 c19 -3 57 -13 84 -22z m-4 -257 c62 -76 72 -101 56 -132 l-13 -26
-26 40 c-32 48 -93 169 -102 202 -7 24 -6 24 19 -5 15 -16 45 -52 66 -79z
m-61 -173 l59 -48 -59 -60 c-33 -34 -74 -69 -90 -79 l-30 -17 0 70 c0 79 6
101 27 101 8 0 12 4 9 9 -5 7 14 71 22 71 1 0 29 -21 62 -47z m-2005 -23 c8
-16 20 -42 25 -56 10 -27 10 -27 -14 -10 -14 9 -36 16 -48 15 -22 -1 -21 -1 4
-10 25 -10 26 -11 12 -37 -16 -32 -18 -52 -4 -52 6 0 10 8 10 19 0 23 25 45
40 36 8 -5 9 -24 5 -57 -12 -87 28 -138 110 -138 32 0 36 -3 33 -22 -5 -35
-47 -45 -103 -24 -64 25 -100 58 -130 121 -49 98 -33 245 25 245 12 0 26 -12
35 -30z m82 -152 c4 -7 6 -23 4 -36 -4 -31 23 -69 51 -75 17 -3 14 -5 -10 -6
-44 -1 -82 36 -82 82 0 45 19 63 37 35z m1711 -36 c10 -30 9 -34 -12 -42 -12
-4 -44 -11 -69 -15 -45 -7 -47 -6 -47 17 0 19 9 29 40 43 22 10 45 24 52 32
13 17 22 9 36 -35z m-242 -46 c-10 -51 -80 -187 -112 -216 -24 -22 -26 -23
-20 -5 5 11 19 51 32 89 13 38 38 100 56 139 28 60 33 67 41 49 5 -11 6 -37 3
-56z m-1422 -6 c-7 -6 -24 22 -23 40 0 9 6 5 14 -10 7 -14 11 -27 9 -30z
m-427 -29 c20 -32 -16 -44 -53 -17 -18 14 -18 15 6 25 34 13 34 13 47 -8z
m509 -203 c82 -135 405 -538 430 -538 6 0 17 7 25 16 13 16 69 47 107 58 22 7
22 6 22 -74 0 -84 24 -228 41 -245 7 -7 8 -4 4 8 -8 21 4 22 73 6 l49 -12 32
-75 c17 -41 29 -77 26 -80 -3 -3 -38 -6 -78 -7 -78 -2 -100 -10 -132 -45 -18
-20 -16 -20 18 3 33 22 49 26 122 26 l83 0 21 -87 c44 -191 51 -321 25 -473
-16 -96 -60 -245 -96 -328 l-20 -46 -16 25 c-10 13 -71 97 -136 185 -170 229
-314 402 -535 644 l-83 91 165 0 165 0 53 -42 53 -41 -23 37 c-13 21 -36 61
-52 89 -36 65 -38 54 -4 -14 l26 -50 -27 18 c-24 15 -49 17 -198 15 l-171 -2
-81 92 -82 91 53 49 c84 76 89 99 82 341 -3 111 -11 235 -17 275 -10 64 -9 78
7 112 10 22 21 40 24 40 3 0 24 -28 45 -62z m1254 -880 c80 -39 173 -130 217
-214 18 -33 56 -132 86 -219 93 -275 146 -390 280 -615 106 -178 216 -406 267
-555 51 -149 180 -597 180 -625 0 -12 -7 -34 -15 -50 -17 -33 -31 -37 -175
-44 -165 -9 -159 -8 -110 -15 l45 -7 -85 -27 c-160 -53 -275 -66 -650 -78
-190 -5 -421 -15 -514 -22 l-169 -12 94 88 c105 98 385 341 496 431 42 34 92
64 120 72 103 32 282 72 370 84 90 11 141 6 228 -26 13 -5 17 -4 10 3 -21 21
-102 45 -157 46 -53 2 -58 4 -69 29 -14 35 -68 87 -135 134 l-51 35 -5 135
c-5 135 -5 135 24 189 46 85 46 128 4 306 -21 85 -51 201 -67 259 -53 183
-180 464 -296 654 l-54 89 33 -7 c18 -3 62 -20 98 -38z m-1902 -65 c61 -87
243 -511 275 -643 56 -227 43 -526 -28 -659 l-14 -26 -16 40 c-9 22 -31 72
-47 110 -39 88 -43 127 -25 243 16 108 5 110 -18 4 -24 -117 -20 -152 30 -271
58 -139 111 -279 119 -316 6 -28 2 -33 -63 -83 -85 -62 -96 -79 -123 -173 -11
-41 -31 -96 -45 -122 -32 -64 -28 -97 14 -117 18 -8 33 -20 33 -26 0 -17 32
-42 65 -50 17 -3 38 -13 47 -21 9 -8 35 -17 57 -20 36 -5 39 -8 30 -24 -8 -15
-5 -24 15 -44 37 -37 73 -32 139 19 69 53 181 111 312 161 139 53 360 175 800
442 180 108 281 153 350 153 100 0 441 -238 422 -295 -2 -5 -37 -15 -78 -21
-67 -11 -209 -44 -256 -60 -10 -4 -2 8 17 25 52 47 8 23 -104 -59 -138 -100
-355 -282 -524 -441 -339 -317 -433 -386 -668 -490 -85 -38 -195 -91 -243
-119 -53 -30 -99 -50 -117 -50 -40 0 -74 34 -97 97 -10 26 -53 116 -97 198
-317 596 -396 784 -469 1120 -39 176 -56 233 -139 465 -42 118 -62 248 -62
411 0 237 29 373 103 481 35 51 55 69 113 100 39 21 105 46 148 57 43 11 80
22 84 25 13 14 42 4 60 -21z m1525 -1114 c32 -25 51 -89 43 -143 -8 -47 -21
-66 -48 -66 -42 0 -74 137 -48 204 12 31 20 32 53 5z m-1089 -450 c26 -23 45
-43 42 -46 -2 -2 -30 -11 -63 -20 -32 -8 -80 -24 -106 -35 -44 -19 -50 -27
-82 -95 -44 -95 -126 -234 -143 -240 -13 -6 -42 14 -42 29 0 5 7 5 17 -1 25
-14 47 2 67 48 21 45 16 70 -15 78 -22 6 -22 9 6 108 16 57 27 69 140 154 49
37 90 61 106 61 17 0 43 -15 73 -41z m133 -104 c26 -30 30 -60 8 -69 -8 -3
-59 -35 -114 -71 -91 -59 -281 -231 -281 -254 0 -11 -39 -3 -57 12 -7 5 -13
16 -13 24 0 10 4 11 19 3 29 -15 36 -13 70 22 46 47 51 76 17 103 l-27 22 41
84 c22 46 46 89 53 95 6 7 48 24 92 38 101 33 159 30 192 -9z m82 -99 c17 -13
64 -116 57 -124 -3 -3 -12 1 -21 8 -25 21 -80 5 -181 -51 -65 -36 -106 -67
-132 -98 -58 -71 -70 -81 -100 -81 -29 0 -72 24 -72 41 0 6 7 3 16 -5 24 -25
62 -19 95 14 32 31 33 58 4 89 -11 11 -5 21 35 56 58 52 170 132 217 156 34
18 55 16 82 -5z m-545 -92 c21 -8 20 -32 -4 -72 -17 -28 -23 -31 -40 -22 -19
10 -19 11 2 55 12 25 23 45 24 45 1 0 9 -3 18 -6z m633 -76 c34 -23 59 -45 55
-49 -4 -4 -43 -19 -87 -34 -91 -30 -158 -66 -263 -138 -64 -44 -77 -49 -100
-41 -15 5 -28 17 -30 27 -3 16 -1 17 17 5 18 -11 26 -10 48 2 15 9 34 28 43
42 13 25 13 29 -8 57 l-22 30 35 28 c57 46 188 113 220 113 19 0 53 -16 92
-42z m-533 26 c24 -9 19 -39 -13 -73 -31 -33 -38 -36 -59 -22 -10 6 -7 18 15
54 29 49 32 51 57 41z m106 -109 c0 -32 -34 -59 -65 -51 -33 8 -32 23 7 63 34
36 58 31 58 -12z m90 -65 c9 -17 6 -25 -14 -45 -29 -28 -44 -32 -52 -10 -6 15
31 75 46 75 5 0 14 -9 20 -20z m1324 -352 c20 -76 -5 -178 -45 -178 -26 0 -39
36 -39 110 0 79 6 90 45 90 25 0 34 -5 39 -22z m123 -981 c36 -70 11 -177 -44
-185 -25 -4 -48 47 -58 130 -7 53 -5 59 19 83 31 31 56 23 83 -28z"/>
<path d="M2296 6975 c24 -39 24 -40 24 -28 0 6 -9 21 -21 34 l-20 24 17 -30z"/>
<path d="M1282 6954 c-12 -19 -25 -49 -28 -67 -4 -24 2 -15 25 32 36 72 37 86
3 35z"/>
<path d="M2266 6960 c3 -14 10 -32 15 -40 7 -13 8 -13 8 0 0 8 -6 26 -15 40
l-15 25 7 -25z"/>
<path d="M2210 6935 c0 -8 4 -15 10 -15 5 0 7 7 4 15 -4 8 -8 15 -10 15 -2 0
-4 -7 -4 -15z"/>
<path d="M1305 6910 c-8 -16 -15 -31 -15 -33 0 -11 39 -14 49 -4 15 15 14 28
-1 25 -8 -2 -12 6 -11 20 4 30 -4 28 -22 -8z"/>
<path d="M1491 5887 c-35 -11 -101 -67 -101 -85 0 -5 15 5 33 23 100 100 298
73 365 -50 10 -17 11 -18 12 -3 0 31 -67 95 -117 112 -52 18 -141 19 -192 3z"/>
<path d="M1576 5784 c-19 -18 -20 -28 -6 -55 20 -37 80 -18 80 26 0 42 -44 59
-74 29z"/>
<path d="M2231 5743 c-19 -10 -46 -34 -60 -53 l-25 -35 34 31 c47 42 72 54
115 54 51 0 94 -28 116 -75 11 -23 19 -32 19 -22 1 79 -123 140 -199 100z"/>
<path d="M2107 5633 c-19 -42 -22 -65 -22 -181 l0 -134 -30 -25 -30 -25 38 7
c44 7 87 25 87 35 0 4 -9 33 -21 66 -31 90 -35 177 -12 247 11 31 18 57 16 57
-2 0 -14 -21 -26 -47z"/>
<path d="M2227 5652 c-21 -23 -22 -56 -3 -71 12 -10 19 -8 35 8 24 24 27 51 9
69 -16 16 -22 15 -41 -6z"/>
<path d="M1410 5636 c0 -3 21 -17 46 -32 59 -35 179 -45 234 -21 33 15 33 16
5 9 -16 -4 -61 -6 -100 -6 -65 0 -92 8 -177 52 -5 2 -8 1 -8 -2z"/>
<path d="M2140 5475 c0 -3 13 -11 30 -20 38 -20 133 -19 176 1 45 22 38 29 -9
9 -46 -19 -117 -19 -162 -1 -19 8 -35 13 -35 11z"/>
<path d="M2186 5372 c12 -9 24 -24 27 -32 4 -11 6 -11 6 3 1 15 8 18 39 17 35
-2 108 17 99 26 -2 3 -26 0 -54 -6 -33 -7 -64 -8 -94 -1 -42 10 -43 9 -23 -7z"/>
<path d="M1431 5341 c-44 -28 63 -86 244 -131 121 -31 297 -50 350 -39 20 4 4
7 -45 8 -208 3 -538 98 -534 154 1 9 1 17 0 17 0 0 -7 -4 -15 -9z"/>
<path d="M1955 5320 c-4 -6 6 -10 22 -10 22 0 25 2 13 10 -19 12 -27 12 -35 0z"/>
</g>
</svg>
