<svg id="visual" viewBox="0 0 1920 700" width="1920" height="700" xmlns="http://www.w3.org/2000/svg" xmlns:xlink="http://www.w3.org/1999/xlink" version="1.1"><rect x="0" y="0" width="1920" height="700" fill="#ffffff"></rect><path d="M0 67L45.7 91.3C91.3 115.7 182.7 164.3 274.2 181.5C365.7 198.7 457.3 184.3 548.8 165.5C640.3 146.7 731.7 123.3 823 129C914.3 134.7 1005.7 169.3 1097 161.5C1188.3 153.7 1279.7 103.3 1371.2 106.8C1462.7 110.3 1554.3 167.7 1645.8 191.3C1737.3 215 1828.7 205 1874.3 200L1920 195L1920 0L1874.3 0C1828.7 0 1737.3 0 1645.8 0C1554.3 0 1462.7 0 1371.2 0C1279.7 0 1188.3 0 1097 0C1005.7 0 914.3 0 823 0C731.7 0 640.3 0 548.8 0C457.3 0 365.7 0 274.2 0C182.7 0 91.3 0 45.7 0L0 0Z" fill="#4facf7"></path><path d="M0 93L45.7 88.3C91.3 83.7 182.7 74.3 274.2 77C365.7 79.7 457.3 94.3 548.8 89.8C640.3 85.3 731.7 61.7 823 49.7C914.3 37.7 1005.7 37.3 1097 52.3C1188.3 67.3 1279.7 97.7 1371.2 121.5C1462.7 145.3 1554.3 162.7 1645.8 164C1737.3 165.3 1828.7 150.7 1874.3 143.3L1920 136L1920 0L1874.3 0C1828.7 0 1737.3 0 1645.8 0C1554.3 0 1462.7 0 1371.2 0C1279.7 0 1188.3 0 1097 0C1005.7 0 914.3 0 823 0C731.7 0 640.3 0 548.8 0C457.3 0 365.7 0 274.2 0C182.7 0 91.3 0 45.7 0L0 0Z" fill="#0066ff"></path></svg>