<svg id="visual" viewBox="0 0 1280 600" width="1280" height="600" xmlns="http://www.w3.org/2000/svg" xmlns:xlink="http://www.w3.org/1999/xlink" version="1.1"><rect x="0" y="0" width="1280" height="600" fill="#FFFFFF"></rect><path d="M0 141L30.5 150.2C61 159.3 122 177.7 183 186.7C244 195.7 305 195.3 366 178.2C427 161 488 127 548.8 112.2C609.7 97.3 670.3 101.7 731.2 111.7C792 121.7 853 137.3 914 152.5C975 167.7 1036 182.3 1097 188.2C1158 194 1219 191 1249.5 189.5L1280 188L1280 0L1249.5 0C1219 0 1158 0 1097 0C1036 0 975 0 914 0C853 0 792 0 731.2 0C670.3 0 609.7 0 548.8 0C488 0 427 0 366 0C305 0 244 0 183 0C122 0 61 0 30.5 0L0 0Z" fill="#0066FF" stroke-linecap="round" stroke-linejoin="miter"></path></svg>