<svg id="visual" viewBox="0 0 900 450" width="900" height="450" xmlns="http://www.w3.org/2000/svg" xmlns:xlink="http://www.w3.org/1999/xlink" version="1.1"><rect x="0" y="0" width="900" height="450" fill="#FFFFFF"></rect><path d="M0 105L21.5 112C43 119 86 133 128.8 139.8C171.7 146.7 214.3 146.3 257.2 133.3C300 120.3 343 94.7 385.8 83.5C428.7 72.3 471.3 75.7 514.2 83.3C557 91 600 103 642.8 114.5C685.7 126 728.3 137 771.2 141.3C814 145.7 857 143.3 878.5 142.2L900 141L900 0L878.5 0C857 0 814 0 771.2 0C728.3 0 685.7 0 642.8 0C600 0 557 0 514.2 0C471.3 0 428.7 0 385.8 0C343 0 300 0 257.2 0C214.3 0 171.7 0 128.8 0C86 0 43 0 21.5 0L0 0Z" fill="#0066FF" stroke-linecap="round" stroke-linejoin="miter"></path></svg>